# xmcd CD database file
#
# Track frame offsets:
#	187
#	19382
#	39267
#	61267
#	81815
#	103120
#	134012
#	152335
#	167682
#	186622
#	205222
#	223717
#	241690
#
# Disc length: 3632 seconds
#
# Revision: 0
# Processed by: cddbd v1.5PL3 Copyright (c) Steve Scherf et al.
# Submitted via: CDex 1.50Beta7
#
DISCID=b10e2e0d
DTITLE=Chris Rea - The Best Of Chris Rea
DYEAR=1988
DGENRE=Rock
TTITLE0=Let's Dance
TTITLE1=Working On It
TTITLE2=Ace Of Hearts
TTITLE3=Josephine
TTITLE4=Candles
TTITLE5=On The Beach
TTITLE6=Fool (If You Think It's Over)
TTITLE7=I Can Here Your Heartbeat
TTITLE8=Shamrock Diaries
TTITLE9=Stainsby Girls
TTITLE10=Windy Town
TTITLE11=Driving Home For Christmas
TTITLE12=Steel River
EXTD=YEAR: 1988
EXTT0=
EXTT1=
EXTT2=
EXTT3=
EXTT4=
EXTT5=
EXTT6=
EXTT7=
EXTT8=
EXTT9=
EXTT10=
EXTT11=
EXTT12=
PLAYORDER=
